<svg width="25" height="24" viewBox="0 0 25 24" fill="none" xmlns="http://www.w3.org/2000/svg">
<path fill-rule="evenodd" clip-rule="evenodd" d="M13.2619 1.45L21.2619 5.45C21.9416 5.78773 22.3715 6.48105 22.3719 7.24V16.77C22.3715 17.5289 21.9416 18.2223 21.2619 18.56L13.2619 22.56C12.6986 22.8419 12.0353 22.8419 11.4719 22.56L3.47194 18.56C2.79294 18.2179 2.36665 17.5203 2.37194 16.76V7.24C2.37235 6.48105 2.80229 5.78773 3.48194 5.45L11.4819 1.45C12.0426 1.17141 12.7013 1.17141 13.2619 1.45Z" stroke="#333333" stroke-width="1.22693" stroke-linecap="round" stroke-linejoin="round"/>
<path d="M2.69181 6.15994L12.3718 10.9999L22.0518 6.15994" stroke="#333333" stroke-width="1.22693" stroke-linecap="round" stroke-linejoin="round"/>
<path d="M12.372 22.76V11" stroke="#333333" stroke-width="1.22693" stroke-linecap="round" stroke-linejoin="round"/>
<path d="M7.37193 3.49991L17.3719 8.49991" stroke="#333333" stroke-width="1.22693" stroke-linecap="round" stroke-linejoin="round"/>
</svg>
