<svg width="25" height="24" viewBox="0 0 25 24" fill="none" xmlns="http://www.w3.org/2000/svg">
<path d="M2.37189 16.3865C2.03309 16.3865 1.75843 16.6611 1.75843 17C1.75843 17.3388 2.03309 17.6134 2.37189 17.6134V16.3865ZM5.37189 8.99995H4.75843H5.37189ZM19.3719 8.99995H19.9854H19.3719ZM14.1018 21L14.6325 21.3078C14.7426 21.118 14.7429 20.8839 14.6334 20.6938C14.5239 20.5037 14.3212 20.3865 14.1018 20.3865V21ZM10.6418 21V20.3865C10.4224 20.3865 10.2198 20.5037 10.1102 20.6938C10.0007 20.8839 10.0011 21.118 10.1112 21.3078L10.6418 21ZM22.3719 16.3865H2.37189V17.6134H22.3719V16.3865ZM2.37189 17.6134C4.36756 17.6134 5.98536 15.9956 5.98536 14H4.75843C4.75843 15.318 3.68994 16.3865 2.37189 16.3865V17.6134ZM5.98536 14V8.99995H4.75843V14H5.98536ZM5.98536 8.99995C5.98536 5.47277 8.84471 2.61342 12.3719 2.61342V1.38649C8.1671 1.38649 4.75843 4.79515 4.75843 8.99995H5.98536ZM12.3719 2.61342C15.8991 2.61342 18.7584 5.47277 18.7584 8.99995H19.9854C19.9854 4.79515 16.5767 1.38649 12.3719 1.38649V2.61342ZM18.7584 8.99995V14H19.9854V8.99995H18.7584ZM18.7584 14C18.7584 15.9956 20.3762 17.6134 22.3719 17.6134V16.3865C21.0538 16.3865 19.9854 15.318 19.9854 14H18.7584ZM13.5712 20.6922C13.3231 21.1198 12.8662 21.383 12.3718 21.383V22.6099C13.3036 22.6099 14.1649 22.1138 14.6325 21.3078L13.5712 20.6922ZM12.3718 21.383C11.8775 21.383 11.4205 21.1198 11.1725 20.6922L10.1112 21.3078C10.5787 22.1138 11.44 22.6099 12.3718 22.6099V21.383ZM10.6418 21.6134H14.1018V20.3865H10.6418V21.6134Z" fill="#333333"/>
</svg>
