<svg width="25" height="24" viewBox="0 0 25 24" fill="none" xmlns="http://www.w3.org/2000/svg">
<path d="M17.3719 20.9999V18.9999C17.3719 16.7908 15.581 14.9999 13.3719 14.9999H5.37187C3.16273 14.9999 1.37187 16.7908 1.37187 18.9999V20.9999" stroke="#333333" stroke-width="1.22693" stroke-linecap="round" stroke-linejoin="round"/>
<path fill-rule="evenodd" clip-rule="evenodd" d="M9.3719 10.9999C11.581 10.9999 13.3719 9.20907 13.3719 6.99993C13.3719 4.79079 11.581 2.99993 9.3719 2.99993C7.16276 2.99993 5.3719 4.79079 5.3719 6.99993C5.3719 9.20907 7.16276 10.9999 9.3719 10.9999Z" stroke="#333333" stroke-width="1.22693" stroke-linecap="round" stroke-linejoin="round"/>
<path d="M23.372 20.9999V18.9999C23.3707 17.177 22.137 15.5856 20.372 15.1299" stroke="#333333" stroke-width="1.22693" stroke-linecap="round" stroke-linejoin="round"/>
<path d="M16.372 3.12993C18.1419 3.5831 19.3798 5.17792 19.3798 7.00493C19.3798 8.83194 18.1419 10.4268 16.372 10.8799" stroke="#333333" stroke-width="1.22693" stroke-linecap="round" stroke-linejoin="round"/>
</svg>
