<svg width="22" height="22" viewBox="0 0 22 22" fill="none" xmlns="http://www.w3.org/2000/svg">
<path fill-rule="evenodd" clip-rule="evenodd" d="M21.3719 15.9199V18.9199C21.3742 19.4831 21.139 20.0211 20.724 20.4018C20.309 20.7825 19.7528 20.9706 19.1919 20.9199C16.1147 20.5856 13.1589 19.5341 10.5619 17.8499C8.14574 16.3146 6.09725 14.2661 4.56191 11.8499C2.87189 9.24113 1.82015 6.27092 1.49191 3.17992C1.44138 2.6208 1.62818 2.06618 2.00668 1.65154C2.38517 1.23691 2.9205 1.00045 3.48191 0.999923H6.48191C7.48577 0.990043 8.34141 1.72589 8.48191 2.71992C8.60853 3.67999 8.84336 4.62265 9.18191 5.52992C9.45665 6.2608 9.28093 7.08473 8.73191 7.63992L7.46191 8.90992C8.88547 11.4135 10.9584 13.4864 13.4619 14.9099L14.7319 13.6399C15.2871 13.0909 16.111 12.9152 16.8419 13.1899C17.7492 13.5285 18.6918 13.7633 19.6519 13.8899C20.6575 14.0318 21.3971 14.9047 21.3719 15.9199Z" stroke="#333333" stroke-width="1.22693" stroke-linecap="round" stroke-linejoin="round"/>
</svg>
