<svg width="22" height="22" viewBox="0 0 22 22" fill="none" xmlns="http://www.w3.org/2000/svg">
<path d="M13.4106 0.0830853C13.5091 0.0829093 13.6068 0.10216 13.6979 0.139738C13.789 0.177315 13.8718 0.232483 13.9416 0.302085L21.3666 7.72709C21.5072 7.86773 21.5862 8.05846 21.5862 8.25734C21.5862 8.45621 21.5072 8.64694 21.3666 8.78759C20.6466 9.50759 19.7586 9.66959 19.1121 9.66959C18.8466 9.66959 18.6096 9.64258 18.4221 9.61108L13.7211 14.3121C13.8448 14.8107 13.9251 15.3191 13.9611 15.8316C14.0301 16.8846 13.9131 18.3621 12.8811 19.3941C12.7404 19.5347 12.5497 19.6137 12.3508 19.6137C12.152 19.6137 11.9612 19.5347 11.8206 19.3941L7.57708 15.1521L2.80408 19.9251C2.51158 20.2176 0.975576 21.2781 0.683076 20.9856C0.390576 20.6931 1.45108 19.1556 1.74358 18.8646L6.51658 14.0916L2.27458 9.84809C2.13397 9.70744 2.05499 9.51671 2.05499 9.31783C2.05499 9.11896 2.13397 8.92823 2.27458 8.78759C3.30658 7.75559 4.78408 7.63708 5.83708 7.70759C6.34956 7.74349 6.85797 7.8238 7.35658 7.94759L12.0576 3.24809C12.0183 3.01966 11.9983 2.78835 11.9976 2.55659C11.9976 1.91159 12.1596 1.02359 12.8811 0.302085C13.0216 0.161882 13.212 0.0831275 13.4106 0.0830853ZM13.5936 3.25109V3.24809V3.25109ZM13.5936 3.24809V3.25109C13.6369 3.38304 13.6427 3.52443 13.6104 3.6595C13.5781 3.79457 13.5089 3.91802 13.4106 4.01609L8.10808 9.31709C8.00955 9.41519 7.8857 9.48397 7.75034 9.51576C7.61499 9.54754 7.47347 9.54108 7.34158 9.49709H7.33858L7.31757 9.49109C7.17487 9.44834 7.03079 9.41032 6.88558 9.37709C6.50823 9.28906 6.12455 9.23088 5.73808 9.20308C5.10508 9.16109 4.48408 9.21509 3.97558 9.42809L12.2406 17.6916C12.4521 17.1816 12.5061 16.5621 12.4641 15.9291C12.4259 15.3932 12.3293 14.863 12.1761 14.3481L12.1701 14.3286V14.3271C12.1258 14.195 12.1192 14.0532 12.151 13.9175C12.1827 13.7819 12.2517 13.6577 12.3501 13.5591L17.6541 8.25659C17.7562 8.15383 17.8859 8.08285 18.0275 8.05224C18.1692 8.02162 18.3166 8.03269 18.4521 8.08409L18.5961 8.11709C18.7266 8.14259 18.9081 8.16809 19.1121 8.16809C19.2831 8.16809 19.4571 8.15159 19.6266 8.10809L13.5591 2.04209C13.5156 2.21159 13.4991 2.38709 13.4991 2.55659C13.4998 2.78966 13.5311 3.02163 13.5921 3.24659L13.5936 3.24809Z" fill="black"/>
</svg>
