<svg width="18" height="19" viewBox="0 0 18 19" fill="none" xmlns="http://www.w3.org/2000/svg">
<path d="M7.06754 3.56241C7.02295 3.84516 7.01177 4.1565 7.06597 4.46983C7.05527 4.47344 7.04463 4.47712 7.03405 4.4809C5.6917 4.95991 4.30384 6.17538 3.63771 8.5447C3.50825 9.00516 3.29972 9.2101 2.92623 9.56356L2.9246 9.56511C2.55125 9.91844 2.07735 10.3669 1.63095 11.227C1.04278 12.3602 1.57608 13.4791 2.43939 14.0257C3.31356 14.5791 4.57394 14.6064 5.59647 13.6971C6.14791 13.2068 6.64906 12.909 7.11536 12.6837C6.37287 13.2266 5.89896 13.9319 5.60806 14.5858C5.26117 15.3656 5.15178 16.123 5.17752 16.5381C5.19763 16.8623 5.46647 17.115 5.79134 17.115H16C16.3397 17.115 16.615 16.8397 16.615 16.5C16.615 13.6268 16.4042 10.8626 15.5762 8.70283C14.7553 6.56174 13.3057 4.97254 10.8774 4.4951L8.5421 2.07313C8.40887 1.93494 8.21875 1.86689 8.02808 1.88915C7.83742 1.9114 7.66808 2.0214 7.57025 2.18656C7.35988 2.54169 7.15108 3.03264 7.06754 3.56241Z" stroke="#424141" stroke-width="1.23" stroke-linejoin="round"/>
</svg>
