<svg width="18" height="19" viewBox="0 0 18 19" fill="none" xmlns="http://www.w3.org/2000/svg">
<path d="M6.74991 13.25H7.36337C7.36337 12.9112 7.08871 12.6365 6.74991 12.6365V13.25ZM15.7499 11.75H16.3634C16.3634 11.4112 16.0887 11.1365 15.7499 11.1365V11.75ZM6.74991 12.6365H3.74991V13.8635H6.74991V12.6365ZM3.74991 12.6365C2.58268 12.6365 1.63645 13.5828 1.63645 14.75H2.86337C2.86337 14.2604 3.26029 13.8635 3.74991 13.8635V12.6365ZM1.63645 14.75C1.63645 15.9172 2.58268 16.8635 3.74991 16.8635V15.6365C3.26029 15.6365 2.86337 15.2396 2.86337 14.75H1.63645ZM3.74991 16.8635H5.24991V15.6365H3.74991V16.8635ZM5.24991 16.8635C6.41714 16.8635 7.36337 15.9172 7.36337 14.75H6.13645C6.13645 15.2396 5.73953 15.6365 5.24991 15.6365V16.8635ZM7.36337 14.75V13.25H6.13645V14.75H7.36337ZM15.7499 11.1365H12.7499V12.3635H15.7499V11.1365ZM12.7499 11.1365C11.5827 11.1365 10.6365 12.0828 10.6365 13.25H11.8634C11.8634 12.7604 12.2603 12.3635 12.7499 12.3635V11.1365ZM10.6365 13.25C10.6365 14.4172 11.5827 15.3635 12.7499 15.3635V14.1365C12.2603 14.1365 11.8634 13.7396 11.8634 13.25H10.6365ZM12.7499 15.3635H14.2499V14.1365H12.7499V15.3635ZM14.2499 15.3635C15.4172 15.3635 16.3634 14.4172 16.3634 13.25H15.1365C15.1365 13.7396 14.7395 14.1365 14.2499 14.1365V15.3635ZM16.3634 13.25V11.75H15.1365V13.25H16.3634Z" fill="#424141"/>
<path d="M6.74986 13.25V4.25L15.7499 2.75V11.75" stroke="#424141" stroke-width="1.22693" stroke-linecap="round" stroke-linejoin="round"/>
</svg>
