<svg fill="none" height="16" viewBox="0 0 17 16" width="17" xmlns="http://www.w3.org/2000/svg">
    <path
        d="M0.75633 4.90001C1.16403 3.94381 1.75716 3.07469 2.50265 2.34109C3.24591 1.60621 4.12881 1.02194 5.10122 0.621444C6.09738 0.20918 7.1677 -0.00214705 8.24859 1.64452e-05H8.28494C9.38434 0.00537358 10.4474 0.219659 11.4487 0.641087C12.4127 1.04568 13.2873 1.63099 14.0236 2.3643C14.7619 3.09625 15.3482 3.96234 15.7499 4.9143C16.167 5.90423 16.3783 6.96613 16.3714 8.03751C16.366 9.27679 16.0643 10.5071 15.501 11.6071V14.3214C15.501 14.775 15.1266 15.1429 14.6669 15.1429H11.9084C10.7838 15.7005 9.54278 15.9939 8.28312 16H8.24496C7.15828 16 6.10613 15.7929 5.11395 15.3875C4.14645 14.9918 3.26684 14.4143 2.52445 13.6875C1.77577 12.9571 1.187 12.1036 0.774501 11.1518C0.347462 10.1661 0.1294 9.11786 0.123949 8.03572C0.120314 6.94822 0.334742 5.89287 0.75633 4.90001ZM11.8757 8.85715C12.3554 8.85715 12.7461 8.47322 12.7461 8.00001C12.7461 7.52679 12.3554 7.14287 11.8757 7.14287C11.396 7.14287 11.0053 7.52679 11.0053 8.00001C11.0053 8.47322 11.3941 8.85715 11.8757 8.85715ZM8.24859 8.85715C8.72833 8.85715 9.11903 8.47322 9.11903 8.00001C9.11903 7.52679 8.72833 7.14287 8.24859 7.14287C7.76886 7.14287 7.37816 7.52679 7.37816 8.00001C7.37816 8.47322 7.76886 8.85715 8.24859 8.85715ZM4.62149 8.85715C5.10122 8.85715 5.49192 8.47322 5.49192 8.00001C5.49192 7.52679 5.10122 7.14287 4.62149 7.14287C4.14175 7.14287 3.75105 7.52679 3.75105 8.00001C3.75105 8.47322 4.14175 8.85715 4.62149 8.85715Z"
        fill="#00B87C" />
</svg>
