<svg width="25" height="24" viewBox="0 0 25 24" fill="none" xmlns="http://www.w3.org/2000/svg">
<path fill-rule="evenodd" clip-rule="evenodd" d="M13.2619 1.45003L21.2619 5.45003C21.9415 5.78776 22.3715 6.48108 22.3719 7.24003V16.77C22.3715 17.529 21.9415 18.2223 21.2619 18.56L13.2619 22.56C12.6985 22.8419 12.0352 22.8419 11.4719 22.56L3.47187 18.56C2.79287 18.2179 2.36658 17.5203 2.37187 16.76V7.24003C2.37228 6.48108 2.80222 5.78776 3.48187 5.45003L11.4819 1.45003C12.0425 1.17144 12.7012 1.17144 13.2619 1.45003Z" stroke="#333333" stroke-width="1.22693" stroke-linecap="round" stroke-linejoin="round"/>
<path d="M2.69189 6.15991L12.3719 10.9999L22.0519 6.15991" stroke="#333333" stroke-width="1.22693" stroke-linecap="round" stroke-linejoin="round"/>
<path d="M12.3721 22.76V11" stroke="#333333" stroke-width="1.22693" stroke-linecap="round" stroke-linejoin="round"/>
<path d="M7.37183 3.49988L17.3718 8.49988" stroke="#333333" stroke-width="1.22693" stroke-linecap="round" stroke-linejoin="round"/>
</svg>
