<svg width="24" height="24" viewBox="0 0 24 24" fill="none" xmlns="http://www.w3.org/2000/svg">
<path fill-rule="evenodd" clip-rule="evenodd" d="M12 16C14.2091 16 16 14.2091 16 12C16 9.79086 14.2091 8 12 8C9.79086 8 8 9.79086 8 12C8 14.2091 9.79086 16 12 16Z" stroke="#7B8794" stroke-width="1.22693" stroke-linecap="round" stroke-linejoin="round"/>
<path d="M16.0001 12.0001V13.0001C16.0001 14.657 17.3433 16.0001 19.0001 16.0001C20.657 16.0001 22.0001 14.657 22.0001 13.0001V12.0001C21.9998 7.35301 18.7982 3.31852 14.2727 2.2624C9.74725 1.20629 5.09059 3.4069 3.03336 7.57383C0.976134 11.7408 2.06055 16.7758 5.65073 19.7264C9.24091 22.677 14.3906 22.7655 18.0801 19.9401" stroke="#7B8794" stroke-width="1.22693" stroke-linecap="round" stroke-linejoin="round"/>
</svg>
