<svg width="18" height="18" viewBox="0 0 18 18" fill="none" xmlns="http://www.w3.org/2000/svg">
<path d="M6.11845 1.64048C5.82337 1.80698 5.71914 2.18115 5.88564 2.47622C6.05214 2.7713 6.42632 2.87553 6.72139 2.70903L6.11845 1.64048ZM14.2499 6.74975L13.6365 6.74944V6.74975H14.2499ZM13.6365 9.74975C13.6365 10.0886 13.9111 10.3632 14.2499 10.3632C14.5887 10.3632 14.8634 10.0886 14.8634 9.74975H13.6365ZM12.7498 13.3632C13.0886 13.3632 13.3633 13.0886 13.3633 12.7498C13.3633 12.411 13.0886 12.1363 12.7498 12.1363V13.3632ZM1.49982 12.1363C1.16101 12.1363 0.886354 12.411 0.886354 12.7498C0.886354 13.0886 1.16101 13.3632 1.49982 13.3632V12.1363ZM3.74982 6.74976H4.36328L4.36328 6.74898L3.74982 6.74976ZM4.87992 4.61618C5.03535 4.31512 4.91729 3.94507 4.61624 3.78965C4.31518 3.63423 3.94514 3.75228 3.78971 4.05334L4.87992 4.61618ZM10.8279 16.0575C10.9979 15.7645 10.8982 15.3891 10.6051 15.2191C10.312 15.0491 9.93665 15.1488 9.76664 15.4419L10.8279 16.0575ZM8.23293 15.4419C8.06293 15.1488 7.68754 15.0491 7.39447 15.2191C7.1014 15.3891 7.00164 15.7645 7.17164 16.0575L8.23293 15.4419ZM6.72139 2.70903C8.1573 1.8988 9.91545 1.91203 11.339 2.7438L11.958 1.68445C10.1577 0.632583 7.93432 0.615841 6.11845 1.64048L6.72139 2.70903ZM11.339 2.7438C12.7625 3.57556 13.6373 5.10071 13.6365 6.74944L14.8634 6.75006C14.8644 4.66505 13.7582 2.73631 11.958 1.68445L11.339 2.7438ZM13.6365 6.74975V9.74975H14.8634V6.74975H13.6365ZM12.7498 12.1363H1.49982V13.3632H12.7498V12.1363ZM1.49982 13.3632C3.08126 13.3632 4.36328 12.0812 4.36328 10.4998H3.13635C3.13635 11.4036 2.40365 12.1363 1.49982 12.1363V13.3632ZM4.36328 10.4998V6.74976H3.13635V10.4998H4.36328ZM4.36328 6.74898C4.36234 6.00695 4.53952 5.27553 4.87992 4.61618L3.78971 4.05334C3.35923 4.88717 3.13517 5.81214 3.13635 6.75053L4.36328 6.74898ZM9.76664 15.4419C9.60804 15.7153 9.31587 15.8836 8.99979 15.8836V17.1105C9.75331 17.1105 10.4498 16.7093 10.8279 16.0575L9.76664 15.4419ZM8.99979 15.8836C8.68371 15.8836 8.39153 15.7153 8.23293 15.4419L7.17164 16.0575C7.54974 16.7093 8.24627 17.1105 8.99979 17.1105V15.8836Z" fill="#5A5A5A"/>
<path d="M0.749878 0.75L17.2499 17.25" stroke="#5A5A5A" stroke-width="1.22693" stroke-linecap="round" stroke-linejoin="round"/>
</svg>
