<svg width="25" height="24" viewBox="0 0 25 24" fill="none" xmlns="http://www.w3.org/2000/svg">
<path d="M2.37183 16.3865C2.03302 16.3865 1.75836 16.6611 1.75836 16.9999C1.75836 17.3387 2.03302 17.6134 2.37183 17.6134V16.3865ZM5.37183 8.99994H4.75836H5.37183ZM19.3718 8.99994H19.9853H19.3718ZM14.1018 21L14.6324 21.3078C14.7425 21.118 14.7429 20.8839 14.6334 20.6938C14.5239 20.5037 14.3212 20.3865 14.1018 20.3865V21ZM10.6418 21V20.3865C10.4224 20.3865 10.2197 20.5037 10.1102 20.6938C10.0007 20.8839 10.001 21.118 10.1111 21.3078L10.6418 21ZM22.3718 16.3865H2.37183V17.6134H22.3718V16.3865ZM2.37183 17.6134C4.36749 17.6134 5.98529 15.9956 5.98529 13.9999H4.75836C4.75836 15.318 3.68987 16.3865 2.37183 16.3865V17.6134ZM5.98529 13.9999V8.99994H4.75836V13.9999H5.98529ZM5.98529 8.99994C5.98529 5.47275 8.84464 2.6134 12.3718 2.6134V1.38648C8.16703 1.38648 4.75836 4.79514 4.75836 8.99994H5.98529ZM12.3718 2.6134C15.899 2.6134 18.7584 5.47275 18.7584 8.99994H19.9853C19.9853 4.79514 16.5766 1.38648 12.3718 1.38648V2.6134ZM18.7584 8.99994V13.9999H19.9853V8.99994H18.7584ZM18.7584 13.9999C18.7584 15.9956 20.3762 17.6134 22.3718 17.6134V16.3865C21.0538 16.3865 19.9853 15.318 19.9853 13.9999H18.7584ZM13.5711 20.6921C13.3231 21.1197 12.8661 21.3829 12.3718 21.3829V22.6099C13.3036 22.6099 14.1649 22.1138 14.6324 21.3078L13.5711 20.6921ZM12.3718 21.3829C11.8774 21.3829 11.4205 21.1197 11.1724 20.6921L10.1111 21.3078C10.5787 22.1138 11.44 22.6099 12.3718 22.6099V21.3829ZM10.6418 21.6134H14.1018V20.3865H10.6418V21.6134Z" fill="#333333"/>
</svg>
