<svg width="24" height="24" viewBox="0 0 24 24" fill="none" xmlns="http://www.w3.org/2000/svg">
<mask id="path-1-inside-1" fill="white">
<path d="M6.01275 16.133C6.12952 16.2586 6.219 16.4102 6.27481 16.5771C6.33062 16.7441 6.35138 16.9221 6.33562 17.0986C6.25656 17.9154 6.10666 18.7226 5.88787 19.5096C7.45725 19.1202 8.41575 18.6694 8.85113 18.4331C9.09807 18.2991 9.38245 18.2673 9.64987 18.3439C10.4165 18.5629 11.2066 18.6731 12 18.6718C16.4955 18.6718 19.875 15.2879 19.875 11.4387C19.875 7.59063 16.4955 4.20552 12 4.20552C7.5045 4.20552 4.125 7.59063 4.125 11.4387C4.125 13.2084 4.81912 14.8503 6.01275 16.133ZM5.45812 20.8405C5.19158 20.8972 4.92416 20.949 4.656 20.996C4.431 21.0346 4.26 20.7839 4.34888 20.5596C4.44877 20.3072 4.54032 20.0511 4.62337 19.7917L4.62675 19.7797C4.90575 18.9117 5.133 17.9135 5.21625 16.9841C3.83588 15.5013 3 13.5604 3 11.4387C3 6.77811 7.02975 3 12 3C16.9703 3 21 6.77811 21 11.4387C21 16.0992 16.9703 19.8773 12 19.8773C11.1086 19.8786 10.2209 19.7546 9.35962 19.5084C8.77462 19.8255 7.51575 20.4029 5.45812 20.8405Z"/>
</mask>
<path d="M6.01275 16.133C6.12952 16.2586 6.219 16.4102 6.27481 16.5771C6.33062 16.7441 6.35138 16.9221 6.33562 17.0986C6.25656 17.9154 6.10666 18.7226 5.88787 19.5096C7.45725 19.1202 8.41575 18.6694 8.85113 18.4331C9.09807 18.2991 9.38245 18.2673 9.64987 18.3439C10.4165 18.5629 11.2066 18.6731 12 18.6718C16.4955 18.6718 19.875 15.2879 19.875 11.4387C19.875 7.59063 16.4955 4.20552 12 4.20552C7.5045 4.20552 4.125 7.59063 4.125 11.4387C4.125 13.2084 4.81912 14.8503 6.01275 16.133ZM5.45812 20.8405C5.19158 20.8972 4.92416 20.949 4.656 20.996C4.431 21.0346 4.26 20.7839 4.34888 20.5596C4.44877 20.3072 4.54032 20.0511 4.62337 19.7917L4.62675 19.7797C4.90575 18.9117 5.133 17.9135 5.21625 16.9841C3.83588 15.5013 3 13.5604 3 11.4387C3 6.77811 7.02975 3 12 3C16.9703 3 21 6.77811 21 11.4387C21 16.0992 16.9703 19.8773 12 19.8773C11.1086 19.8786 10.2209 19.7546 9.35962 19.5084C8.77462 19.8255 7.51575 20.4029 5.45812 20.8405Z" fill="#616061"/>
<path d="M6.01275 16.133L7.16262 15.064L7.16209 15.0634L6.01275 16.133ZM6.33562 17.0986L7.89836 17.2499L7.8994 17.2382L6.33562 17.0986ZM5.88787 19.5096L4.37523 19.0891L3.65464 21.6813L6.26595 21.0334L5.88787 19.5096ZM8.85113 18.4331L9.6 19.813L9.60003 19.813L8.85113 18.4331ZM9.64987 18.3439L9.21768 19.8532L9.21861 19.8535L9.64987 18.3439ZM12 18.6718V17.1018L11.9973 17.1018L12 18.6718ZM4.656 20.996L4.92131 22.5435L4.92729 22.5424L4.656 20.996ZM4.34888 20.5596L5.80841 21.1381L5.80874 21.1373L4.34888 20.5596ZM4.62337 19.7917L6.11858 20.2705L6.12743 20.2429L6.13525 20.215L4.62337 19.7917ZM4.62675 19.7797L3.13207 19.2992L3.12293 19.3277L3.11488 19.3564L4.62675 19.7797ZM5.21625 16.9841L6.77999 17.1241L6.84245 16.4268L6.36538 15.9143L5.21625 16.9841ZM12 19.8773V18.3073L11.9977 18.3073L12 19.8773ZM9.35962 19.5084L9.79106 17.9989L9.17492 17.8228L8.61154 18.1281L9.35962 19.5084ZM4.86288 17.2019C4.82313 17.1592 4.79913 17.1148 4.78584 17.075L7.76378 16.0793C7.63887 15.7057 7.43591 15.358 7.16262 15.064L4.86288 17.2019ZM4.78584 17.075C4.7726 17.0354 4.76851 16.9963 4.77185 16.959L7.8994 17.2382C7.93426 16.8479 7.88864 16.4527 7.76378 16.0793L4.78584 17.075ZM4.77293 16.9473C4.70263 17.6736 4.56941 18.3906 4.37523 19.0891L7.40052 19.9301C7.64391 19.0546 7.81048 18.1573 7.89832 17.2498L4.77293 16.9473ZM6.26595 21.0334C7.96693 20.6114 9.04982 20.1116 9.6 19.813L8.10225 17.0532C7.78168 17.2272 6.94757 17.6291 5.5098 17.9858L6.26595 21.0334ZM9.60003 19.813C9.48951 19.873 9.35014 19.8912 9.21768 19.8532L10.0821 16.8346C9.41476 16.6435 8.70663 16.7252 8.10222 17.0532L9.60003 19.813ZM9.21861 19.8535C10.1256 20.1126 11.0618 20.2434 12.0027 20.2418L11.9973 17.1018C11.3514 17.1029 10.7073 17.0132 10.0811 16.8343L9.21861 19.8535ZM12 20.2418C17.2751 20.2418 21.445 16.24 21.445 11.4387H18.305C18.305 14.3358 15.7159 17.1018 12 17.1018V20.2418ZM21.445 11.4387C21.445 6.63872 17.2753 2.63552 12 2.63552V5.77552C15.7157 5.77552 18.305 8.54254 18.305 11.4387H21.445ZM12 2.63552C6.72474 2.63552 2.555 6.63872 2.555 11.4387H5.695C5.695 8.54254 8.28426 5.77552 12 5.77552V2.63552ZM2.555 11.4387C2.555 13.6323 3.41843 15.6497 4.86341 17.2025L7.16209 15.0634C6.21982 14.0509 5.695 12.7845 5.695 11.4387H2.555ZM5.1319 19.3048C4.88358 19.3575 4.63448 19.4058 4.38471 19.4497L4.92729 22.5424C5.21385 22.4922 5.49958 22.4368 5.78435 22.3763L5.1319 19.3048ZM4.39069 19.4486C4.97296 19.3488 5.44355 19.6493 5.67346 19.9797C5.89575 20.2992 5.96957 20.7315 5.80841 21.1381L2.88934 19.9811C2.6393 20.612 2.75418 21.2818 3.09601 21.7731C3.44545 22.2753 4.11404 22.6819 4.92131 22.5435L4.39069 19.4486ZM5.80874 21.1373C5.92155 20.8522 6.02488 20.5631 6.11858 20.2705L3.12817 19.3129C3.05576 19.539 2.97599 19.7622 2.88901 19.982L5.80874 21.1373ZM6.13525 20.215L6.13862 20.2029L3.11488 19.3564L3.1115 19.3685L6.13525 20.215ZM6.12143 20.2601C6.4279 19.3067 6.68427 18.1928 6.77999 17.1241L3.65251 16.844C3.58173 17.6342 3.3836 18.5167 3.13207 19.2992L6.12143 20.2601ZM6.36538 15.9143C5.23635 14.7015 4.57 13.1362 4.57 11.4387H1.43C1.43 13.9846 2.4354 16.301 4.06712 18.0538L6.36538 15.9143ZM4.57 11.4387C4.57 7.73894 7.80002 4.57 12 4.57V1.43C6.25948 1.43 1.43 5.81727 1.43 11.4387H4.57ZM12 4.57C16.2 4.57 19.43 7.73894 19.43 11.4387H22.57C22.57 5.81727 17.7405 1.43 12 1.43V4.57ZM19.43 11.4387C19.43 15.1384 16.2 18.3073 12 18.3073V21.4473C17.7405 21.4473 22.57 17.06 22.57 11.4387H19.43ZM11.9977 18.3073C11.2537 18.3084 10.512 18.2049 9.79106 17.9989L8.92819 21.018C9.92981 21.3042 10.9635 21.4488 12.0023 21.4473L11.9977 18.3073ZM8.61154 18.1281C8.15641 18.3748 7.03924 18.8992 5.13153 19.3049L5.78472 22.3762C7.99226 21.9067 9.39284 21.2762 10.1077 20.8887L8.61154 18.1281Z" fill="#616061" mask="url(#path-1-inside-1)"/>
<mask id="path-3-inside-2" fill="white">
<path d="M7.5 8.42478C7.5 8.26492 7.55926 8.11161 7.66475 7.99857C7.77024 7.88553 7.91332 7.82202 8.0625 7.82202H15.9375C16.0867 7.82202 16.2298 7.88553 16.3352 7.99857C16.4407 8.11161 16.5 8.26492 16.5 8.42478C16.5 8.58465 16.4407 8.73796 16.3352 8.851C16.2298 8.96404 16.0867 9.02754 15.9375 9.02754H8.0625C7.91332 9.02754 7.77024 8.96404 7.66475 8.851C7.55926 8.73796 7.5 8.58465 7.5 8.42478ZM7.5 11.4386C7.5 11.2787 7.55926 11.1254 7.66475 11.0124C7.77024 10.8993 7.91332 10.8358 8.0625 10.8358H15.9375C16.0867 10.8358 16.2298 10.8993 16.3352 11.0124C16.4407 11.1254 16.5 11.2787 16.5 11.4386C16.5 11.5985 16.4407 11.7518 16.3352 11.8648C16.2298 11.9778 16.0867 12.0414 15.9375 12.0414H8.0625C7.91332 12.0414 7.77024 11.9778 7.66475 11.8648C7.55926 11.7518 7.5 11.5985 7.5 11.4386ZM7.5 14.4524C7.5 14.2925 7.55926 14.1392 7.66475 14.0262C7.77024 13.9131 7.91332 13.8496 8.0625 13.8496H12.5625C12.7117 13.8496 12.8548 13.9131 12.9602 14.0262C13.0657 14.1392 13.125 14.2925 13.125 14.4524C13.125 14.6123 13.0657 14.7656 12.9602 14.8786C12.8548 14.9917 12.7117 15.0552 12.5625 15.0552H8.0625C7.91332 15.0552 7.77024 14.9917 7.66475 14.8786C7.55926 14.7656 7.5 14.6123 7.5 14.4524Z"/>
</mask>
<path d="M7.5 8.42478C7.5 8.26492 7.55926 8.11161 7.66475 7.99857C7.77024 7.88553 7.91332 7.82202 8.0625 7.82202H15.9375C16.0867 7.82202 16.2298 7.88553 16.3352 7.99857C16.4407 8.11161 16.5 8.26492 16.5 8.42478C16.5 8.58465 16.4407 8.73796 16.3352 8.851C16.2298 8.96404 16.0867 9.02754 15.9375 9.02754H8.0625C7.91332 9.02754 7.77024 8.96404 7.66475 8.851C7.55926 8.73796 7.5 8.58465 7.5 8.42478ZM7.5 11.4386C7.5 11.2787 7.55926 11.1254 7.66475 11.0124C7.77024 10.8993 7.91332 10.8358 8.0625 10.8358H15.9375C16.0867 10.8358 16.2298 10.8993 16.3352 11.0124C16.4407 11.1254 16.5 11.2787 16.5 11.4386C16.5 11.5985 16.4407 11.7518 16.3352 11.8648C16.2298 11.9778 16.0867 12.0414 15.9375 12.0414H8.0625C7.91332 12.0414 7.77024 11.9778 7.66475 11.8648C7.55926 11.7518 7.5 11.5985 7.5 11.4386ZM7.5 14.4524C7.5 14.2925 7.55926 14.1392 7.66475 14.0262C7.77024 13.9131 7.91332 13.8496 8.0625 13.8496H12.5625C12.7117 13.8496 12.8548 13.9131 12.9602 14.0262C13.0657 14.1392 13.125 14.2925 13.125 14.4524C13.125 14.6123 13.0657 14.7656 12.9602 14.8786C12.8548 14.9917 12.7117 15.0552 12.5625 15.0552H8.0625C7.91332 15.0552 7.77024 14.9917 7.66475 14.8786C7.55926 14.7656 7.5 14.6123 7.5 14.4524Z" fill="#616061"/>
<path d="M7.5 8.42478H9.07H7.5ZM7.5 11.4386L9.07 11.4386L7.5 11.4386ZM7.5 14.4524H9.07H7.5ZM9.07 8.42478C9.07 8.64763 8.98839 8.88133 8.81258 9.06973L6.51692 6.92741C6.13013 7.34188 5.93 7.88221 5.93 8.42478H9.07ZM8.81258 9.06973C8.63335 9.26179 8.3661 9.39202 8.0625 9.39202V6.25202C7.46053 6.25202 6.90714 6.50926 6.51692 6.92741L8.81258 9.06973ZM8.0625 9.39202H15.9375V6.25202H8.0625V9.39202ZM15.9375 9.39202C15.6339 9.39202 15.3667 9.26179 15.1874 9.06973L17.4831 6.92741C17.0929 6.50926 16.5395 6.25202 15.9375 6.25202V9.39202ZM15.1874 9.06973C15.0116 8.88133 14.93 8.64763 14.93 8.42478H18.07C18.07 7.88221 17.8699 7.34188 17.4831 6.92741L15.1874 9.06973ZM14.93 8.42478C14.93 8.20193 15.0116 7.96824 15.1874 7.77984L17.4831 9.92216C17.8699 9.50768 18.07 8.96736 18.07 8.42478H14.93ZM15.1874 7.77984C15.3667 7.58777 15.6339 7.45754 15.9375 7.45754V10.5975C16.5395 10.5975 17.0929 10.3403 17.4831 9.92216L15.1874 7.77984ZM15.9375 7.45754H8.0625V10.5975H15.9375V7.45754ZM8.0625 7.45754C8.3661 7.45754 8.63335 7.58777 8.81258 7.77984L6.51692 9.92216C6.90714 10.3403 7.46053 10.5975 8.0625 10.5975V7.45754ZM8.81258 7.77984C8.98839 7.96823 9.07 8.20193 9.07 8.42478H5.93C5.93 8.96736 6.13013 9.50769 6.51692 9.92216L8.81258 7.77984ZM9.07 11.4386C9.07 11.6614 8.98839 11.8951 8.81258 12.0835L6.51692 9.94121C6.13013 10.3557 5.93 10.896 5.93 11.4386L9.07 11.4386ZM8.81258 12.0835C8.63335 12.2756 8.3661 12.4058 8.0625 12.4058V9.26583C7.46053 9.26583 6.90714 9.52307 6.51692 9.94121L8.81258 12.0835ZM8.0625 12.4058H15.9375V9.26583H8.0625V12.4058ZM15.9375 12.4058C15.6339 12.4058 15.3667 12.2756 15.1874 12.0835L17.4831 9.94121C17.0929 9.52307 16.5395 9.26583 15.9375 9.26583V12.4058ZM15.1874 12.0835C15.0116 11.8951 14.93 11.6614 14.93 11.4386H18.07C18.07 10.896 17.8699 10.3557 17.4831 9.94121L15.1874 12.0835ZM14.93 11.4386C14.93 11.2157 15.0116 10.982 15.1874 10.7936L17.4831 12.936C17.8699 12.5215 18.07 11.9812 18.07 11.4386H14.93ZM15.1874 10.7936C15.3667 10.6016 15.6339 10.4714 15.9375 10.4714V13.6114C16.5395 13.6114 17.0929 13.3541 17.4831 12.936L15.1874 10.7936ZM15.9375 10.4714H8.0625V13.6114H15.9375V10.4714ZM8.0625 10.4714C8.3661 10.4714 8.63335 10.6016 8.81258 10.7936L6.51692 12.936C6.90714 13.3541 7.46053 13.6114 8.0625 13.6114V10.4714ZM8.81258 10.7936C8.9884 10.982 9.07 11.2157 9.07 11.4386L5.93 11.4386C5.93 11.9812 6.13013 12.5215 6.51692 12.936L8.81258 10.7936ZM9.07 14.4524C9.07 14.6752 8.9884 14.9089 8.81258 15.0973L6.51692 12.955C6.13013 13.3695 5.93 13.9098 5.93 14.4524H9.07ZM8.81258 15.0973C8.63335 15.2894 8.3661 15.4196 8.0625 15.4196V12.2796C7.46053 12.2796 6.90714 12.5369 6.51692 12.955L8.81258 15.0973ZM8.0625 15.4196H12.5625V12.2796H8.0625V15.4196ZM12.5625 15.4196C12.2589 15.4196 11.9917 15.2894 11.8124 15.0973L14.1081 12.955C13.7179 12.5369 13.1645 12.2796 12.5625 12.2796V15.4196ZM11.8124 15.0973C11.6366 14.9089 11.555 14.6752 11.555 14.4524H14.695C14.695 13.9098 14.4949 13.3695 14.1081 12.955L11.8124 15.0973ZM11.555 14.4524C11.555 14.2295 11.6366 13.9959 11.8124 13.8075L14.1081 15.9498C14.4949 15.5353 14.695 14.995 14.695 14.4524H11.555ZM11.8124 13.8075C11.9917 13.6154 12.2589 13.4852 12.5625 13.4852V16.6252C13.1645 16.6252 13.7179 16.3679 14.1081 15.9498L11.8124 13.8075ZM12.5625 13.4852H8.0625V16.6252H12.5625V13.4852ZM8.0625 13.4852C8.3661 13.4852 8.63335 13.6154 8.81258 13.8075L6.51692 15.9498C6.90714 16.3679 7.46053 16.6252 8.0625 16.6252V13.4852ZM8.81258 13.8075C8.9884 13.9958 9.07 14.2295 9.07 14.4524H5.93C5.93 14.995 6.13013 15.5353 6.51692 15.9498L8.81258 13.8075Z" fill="#616061" mask="url(#path-3-inside-2)"/>
</svg>
