<svg width="25" height="24" viewBox="0 0 25 24" fill="none" xmlns="http://www.w3.org/2000/svg">
<path d="M15.4103 1.08313C15.5089 1.08296 15.6065 1.10221 15.6976 1.13978C15.7887 1.17736 15.8716 1.23253 15.9413 1.30213L23.3663 8.72713C23.5069 8.86778 23.5859 9.05851 23.5859 9.25738C23.5859 9.45625 23.5069 9.64699 23.3663 9.78763C22.6463 10.5076 21.7583 10.6696 21.1118 10.6696C20.8463 10.6696 20.6093 10.6426 20.4218 10.6111L15.7208 15.3121C15.8446 15.8107 15.9249 16.3191 15.9608 16.8316C16.0298 17.8846 15.9128 19.3621 14.8808 20.3941C14.7402 20.5347 14.5495 20.6137 14.3506 20.6137C14.1517 20.6137 13.961 20.5347 13.8203 20.3941L9.57684 16.1521L4.80384 20.9251C4.51134 21.2176 2.97534 22.2781 2.68284 21.9856C2.39034 21.6931 3.45084 20.1556 3.74334 19.8646L8.51634 15.0916L4.27434 10.8481C4.13374 10.7075 4.05475 10.5168 4.05475 10.3179C4.05475 10.119 4.13374 9.92828 4.27434 9.78763C5.30634 8.75563 6.78384 8.63713 7.83684 8.70763C8.34933 8.74354 8.85773 8.82384 9.35634 8.94763L14.0573 4.24813C14.0181 4.01971 13.998 3.7884 13.9973 3.55663C13.9973 2.91163 14.1593 2.02363 14.8808 1.30213C15.0214 1.16193 15.2118 1.08317 15.4103 1.08313ZM15.5933 4.25113V4.24813V4.25113ZM15.5933 4.24813V4.25113C15.6367 4.38309 15.6425 4.52448 15.6102 4.65955C15.5779 4.79462 15.5087 4.91806 15.4103 5.01613L10.1078 10.3171C10.0093 10.4152 9.88546 10.484 9.75011 10.5158C9.61476 10.5476 9.47323 10.5411 9.34134 10.4971H9.33834L9.31734 10.4911C9.17464 10.4484 9.03056 10.4104 8.88534 10.3771C8.508 10.2891 8.12431 10.2309 7.73784 10.2031C7.10484 10.1611 6.48384 10.2151 5.97534 10.4281L14.2403 18.6916C14.4518 18.1816 14.5058 17.5621 14.4638 16.9291C14.4256 16.3932 14.3291 15.8631 14.1758 15.3481L14.1698 15.3286V15.3271C14.1255 15.195 14.1189 15.0532 14.1507 14.9176C14.1825 14.7819 14.2515 14.6578 14.3498 14.5591L19.6538 9.25663C19.756 9.15387 19.8857 9.08289 20.0273 9.05228C20.1689 9.02167 20.3164 9.03273 20.4518 9.08413L20.5958 9.11713C20.7263 9.14263 20.9078 9.16813 21.1118 9.16813C21.2828 9.16813 21.4568 9.15163 21.6263 9.10813L15.5588 3.04213C15.5153 3.21163 15.4988 3.38713 15.4988 3.55663C15.4996 3.78971 15.5308 4.02168 15.5918 4.24663L15.5933 4.24813Z" fill="black"/>
</svg>
