<svg width="18" height="19" viewBox="0 0 18 19" fill="none" xmlns="http://www.w3.org/2000/svg">
<path d="M2.04578 1C2.04578 0.692911 1.79684 0.443966 1.48975 0.443966C1.18266 0.443966 0.933712 0.692911 0.933712 1H2.04578ZM1.48975 6.33793H0.933712H1.48975ZM3.86216 8.71034V9.26638V8.71034ZM6.23457 6.33793H6.79061H6.23457ZM5.04837 1.5931V1.03707V1.5931ZM3.86216 2.77931H3.30613H3.86216ZM2.67595 17.0138H2.11992H2.67595ZM3.23199 10.4897C3.23199 10.1826 2.98304 9.93362 2.67595 9.93362C2.36886 9.93362 2.11992 10.1826 2.11992 10.4897H3.23199ZM13.9449 6.89397C14.252 6.89397 14.501 6.64502 14.501 6.33793C14.501 6.03084 14.252 5.7819 13.9449 5.7819V6.89397ZM9.20009 5.7819C8.893 5.7819 8.64406 6.03084 8.64406 6.33793C8.64406 6.64502 8.893 6.89397 9.20009 6.89397V5.7819ZM13.9449 10.4526C14.252 10.4526 14.501 10.2036 14.501 9.89655C14.501 9.58946 14.252 9.34052 13.9449 9.34052V10.4526ZM9.20009 9.34052C8.893 9.34052 8.64406 9.58946 8.64406 9.89655C8.64406 10.2036 8.893 10.4526 9.20009 10.4526V9.34052ZM13.9449 14.0112C14.252 14.0112 14.501 13.7623 14.501 13.4552C14.501 13.1481 14.252 12.8991 13.9449 12.8991V14.0112ZM5.64147 12.8991C5.33438 12.8991 5.08544 13.1481 5.08544 13.4552C5.08544 13.7623 5.33438 14.0112 5.64147 14.0112V12.8991ZM7.49951 1.03707C7.19242 1.03707 6.94348 1.28601 6.94348 1.5931C6.94348 1.90019 7.19242 2.14914 7.49951 2.14914V1.03707ZM0.933712 1V6.33793H2.04578V1H0.933712ZM0.933712 6.33793C0.933712 7.1146 1.24224 7.85947 1.79143 8.40866L2.57779 7.6223C2.23715 7.28167 2.04578 6.81966 2.04578 6.33793H0.933712ZM1.79143 8.40866C2.34062 8.95785 3.08549 9.26638 3.86216 9.26638V8.15431C3.38043 8.15431 2.91842 7.96294 2.57779 7.6223L1.79143 8.40866ZM3.86216 9.26638C4.63883 9.26638 5.3837 8.95785 5.93289 8.40866L5.14653 7.6223C4.8059 7.96294 4.34389 8.15431 3.86216 8.15431V9.26638ZM5.93289 8.40866C6.48208 7.85947 6.79061 7.1146 6.79061 6.33793H5.67854C5.67854 6.81966 5.48717 7.28167 5.14653 7.6223L5.93289 8.40866ZM6.79061 6.33793V2.77931H5.67854V6.33793H6.79061ZM6.79061 2.77931C6.79061 2.31724 6.60705 1.87409 6.28032 1.54736L5.49397 2.33371C5.61215 2.45189 5.67854 2.61218 5.67854 2.77931H6.79061ZM6.28032 1.54736C5.95358 1.22063 5.51044 1.03707 5.04837 1.03707V2.14914C5.2155 2.14914 5.37579 2.21553 5.49397 2.33371L6.28032 1.54736ZM5.04837 1.03707C4.5863 1.03707 4.14315 1.22063 3.81642 1.54736L4.60277 2.33371C4.72095 2.21553 4.88123 2.14914 5.04837 2.14914V1.03707ZM3.81642 1.54736C3.48968 1.87409 3.30613 2.31724 3.30613 2.77931H4.41819C4.41819 2.61218 4.48459 2.45189 4.60277 2.33371L3.81642 1.54736ZM15.7242 2.14914C15.8914 2.14914 16.0516 2.21553 16.1698 2.33371L16.9562 1.54736C16.6294 1.22063 16.1863 1.03707 15.7242 1.03707V2.14914ZM16.1698 2.33371C16.288 2.45189 16.3544 2.61218 16.3544 2.77931H17.4665C17.4665 2.31724 17.2829 1.87409 16.9562 1.54736L16.1698 2.33371ZM16.3544 2.77931V17.0138H17.4665V2.77931H16.3544ZM16.3544 17.0138C16.3544 17.1809 16.288 17.3412 16.1698 17.4594L16.9562 18.2457C17.2829 17.919 17.4665 17.4759 17.4665 17.0138H16.3544ZM16.1698 17.4594C16.0516 17.5776 15.8914 17.644 15.7242 17.644V18.756C16.1863 18.756 16.6294 18.5725 16.9562 18.2457L16.1698 17.4594ZM15.7242 17.644H3.86216V18.756H15.7242V17.644ZM3.86216 17.644C3.69503 17.644 3.53474 17.5776 3.41656 17.4594L2.63021 18.2457C2.95694 18.5725 3.40009 18.756 3.86216 18.756V17.644ZM3.41656 17.4594C3.29838 17.3412 3.23199 17.1809 3.23199 17.0138H2.11992C2.11992 17.4759 2.30348 17.919 2.63021 18.2457L3.41656 17.4594ZM3.23199 17.0138V10.4897H2.11992V17.0138H3.23199ZM13.9449 5.7819H9.20009V6.89397H13.9449V5.7819ZM13.9449 9.34052H9.20009V10.4526H13.9449V9.34052ZM13.9449 12.8991H5.64147V14.0112H13.9449V12.8991ZM3.30613 2.77931V6.33793H4.41819V2.77931H3.30613ZM15.7242 1.03707H7.49951V2.14914H15.7242V1.03707Z" fill="#7B8794"/>
</svg>
