<svg width="18" height="17" viewBox="0 0 18 17" fill="none" xmlns="http://www.w3.org/2000/svg">
<path d="M7.06754 2.56241C7.02295 2.84516 7.01177 3.1565 7.06597 3.46983C7.05527 3.47344 7.04463 3.47712 7.03405 3.4809C5.6917 3.95991 4.30384 5.17538 3.63771 7.5447C3.50825 8.00516 3.29972 8.2101 2.92623 8.56356L2.9246 8.56511C2.55125 8.91844 2.07735 9.36691 1.63095 10.227C1.04278 11.3602 1.57608 12.4791 2.43939 13.0257C3.31356 13.5791 4.57394 13.6064 5.59647 12.6971C6.14791 12.2068 6.64906 11.909 7.11536 11.6837C6.37287 12.2266 5.89896 12.9319 5.60806 13.5858C5.26117 14.3656 5.15178 15.123 5.17752 15.5381C5.19763 15.8623 5.46647 16.115 5.79134 16.115H16C16.3397 16.115 16.615 15.8397 16.615 15.5C16.615 12.6268 16.4042 9.8626 15.5762 7.70283C14.7553 5.56174 13.3057 3.97254 10.8774 3.4951L8.5421 1.07313C8.40887 0.934941 8.21875 0.866893 8.02808 0.889147C7.83742 0.911401 7.66808 1.0214 7.57025 1.18656C7.35988 1.54169 7.15108 2.03264 7.06754 2.56241Z" stroke="#424141" stroke-width="1.23" stroke-linejoin="round"/>
</svg>
