<svg width="18" height="18" viewBox="0 0 18 18" fill="none" xmlns="http://www.w3.org/2000/svg">
<path fill-rule="evenodd" clip-rule="evenodd" d="M0.0306264 5.06736C0.0306264 4.14199 0.75604 3.42547 1.84852 3.42547C2.941 3.42547 5.18241 3.40066 5.18241 3.40066C5.18241 3.40066 5.14821 2.62989 5.14821 1.64961C5.14821 0.669547 6.03726 0 7.10314 0C8.16924 0 13.4503 0.0442176 13.9685 0.0442176C14.4867 0.0442176 14.9071 0.233768 15.488 0.669437C16.0688 1.10533 16.9469 1.83387 17.3817 2.31927C17.8165 2.80466 18 3.08805 18 3.48855C18 3.88915 18 11.9633 17.9933 12.8988C17.9867 13.8344 17.1128 14.526 16.0782 14.5397C15.0435 14.5534 12.8216 14.5534 12.8216 14.5534C12.8216 14.5534 12.8737 15.2453 12.8737 16.2239C12.8737 17.2026 11.9677 17.9674 10.9381 17.9944C9.90867 18.0214 2.89663 17.9404 1.89737 17.9674C0.898106 17.9944 0 17.2182 0 16.2668C0 15.3154 0.0306264 5.99262 0.0306264 5.06736ZM1.90105 5.50248L1.77229 15.7412C1.77152 15.799 1.78239 15.8564 1.80428 15.91C1.82617 15.9636 1.85863 16.0124 1.89978 16.0536C1.94094 16.0947 1.98997 16.1274 2.04402 16.1497C2.09808 16.1721 2.15609 16.1836 2.21469 16.1836L10.4763 16.2078C10.5345 16.2085 10.5923 16.1976 10.6461 16.1757C10.6999 16.1538 10.7487 16.1214 10.7896 16.0804C10.8304 16.0395 10.8624 15.9908 10.8837 15.9373C10.9049 15.8838 10.915 15.8266 10.9133 15.7692L10.8889 14.7887C10.8884 14.7597 10.8821 14.7311 10.8703 14.7045C10.8585 14.6779 10.8415 14.6539 10.8202 14.6339C10.7989 14.6139 10.7738 14.5982 10.7464 14.5878C10.7189 14.5774 10.6896 14.5725 10.6602 14.5733C10.6602 14.5733 8.21618 14.6439 7.10951 14.6056C6.00272 14.5673 5.24601 13.8551 5.24567 12.8947C5.24534 11.9344 5.24601 5.27059 5.24601 5.27059C5.24607 5.24158 5.2403 5.21285 5.22902 5.18606C5.21775 5.15927 5.20121 5.13495 5.18034 5.11451C5.15948 5.09407 5.13471 5.07792 5.10748 5.06699C5.08024 5.05605 5.05108 5.05056 5.02168 5.05082L2.35352 5.05987C2.23443 5.06069 2.1204 5.10747 2.03584 5.19019C1.95127 5.27291 1.90289 5.38501 1.90105 5.50248ZM13.8059 1.61465C13.6197 1.45477 13.4688 1.52203 13.4688 1.76594V3.66862C13.4688 3.79057 13.5687 3.88992 13.692 3.89058L16.0245 3.90172C16.2709 3.90293 16.3197 3.77425 16.1336 3.61436L13.8059 1.61465ZM7.36704 1.70805C7.33761 1.70779 7.30842 1.71325 7.28115 1.72414C7.25387 1.73502 7.22903 1.7511 7.20806 1.77146C7.18708 1.79182 7.17039 1.81606 7.15893 1.8428C7.14746 1.86953 7.14146 1.89824 7.14125 1.92726L7.07128 12.5451C7.07085 12.5884 7.07915 12.6314 7.0957 12.6716C7.11225 12.7117 7.13672 12.7482 7.16769 12.779C7.19865 12.8097 7.2355 12.8341 7.27609 12.8507C7.31668 12.8672 7.36021 12.8757 7.40414 12.8755L15.8096 12.855C15.8695 12.8548 15.9269 12.8314 15.9695 12.79C16.0122 12.7485 16.0368 12.6923 16.038 12.6332L16.1798 5.75014C16.1806 5.72132 16.1755 5.69263 16.1648 5.66579C16.1541 5.63894 16.1381 5.61448 16.1177 5.59387C16.0972 5.57326 16.0728 5.55691 16.0458 5.54579C16.0189 5.53468 15.9899 5.52902 15.9607 5.52917C15.9607 5.52917 13.0353 5.5338 12.5199 5.5338C12.0045 5.5338 11.6777 5.28878 11.6777 4.81904C11.6777 4.3493 11.6679 1.95593 11.6679 1.95593C11.6674 1.89711 11.6436 1.84081 11.6015 1.79918C11.5593 1.75755 11.5023 1.73393 11.4427 1.73341L7.36704 1.70805Z" fill="#616061"/>
</svg>
