<svg width="24" height="24" viewBox="0 0 24 24" fill="none" xmlns="http://www.w3.org/2000/svg">
<path d="M18 15C18 16.0609 17.5786 17.0783 16.8284 17.8284C16.0783 18.5786 15.0609 19 14 19C12.9391 19 11.9217 18.5786 11.1716 17.8284C10.4214 17.0783 10 16.0609 10 15C10 13.9391 10.4214 12.9217 11.1716 12.1716C11.9217 11.4214 12.9391 11 14 11C15.0609 11 16.0783 11.4214 16.8284 12.1716C17.5786 12.9217 18 13.9391 18 15ZM16.6667 15C16.6667 14.2928 16.3857 13.6145 15.8856 13.1144C15.3855 12.6143 14.7072 12.3333 14 12.3333C13.2928 12.3333 12.6145 12.6143 12.1144 13.1144C11.6143 13.6145 11.3333 14.2928 11.3333 15C11.3333 15.7072 11.6143 16.3855 12.1144 16.8856C12.6145 17.3857 13.2928 17.6667 14 17.6667C14.7072 17.6667 15.3855 17.3857 15.8856 16.8856C16.3857 16.3855 16.6667 15.7072 16.6667 15ZM12.1573 7C11.7857 7.00001 11.4214 7.10356 11.1054 7.29904C10.7893 7.49451 10.534 7.77418 10.368 8.10667L9.588 9.66667H8.66667C7.95942 9.66667 7.28115 9.94762 6.78105 10.4477C6.28095 10.9478 6 11.6261 6 12.3333V19C6 19.7072 6.28095 20.3855 6.78105 20.8856C7.28115 21.3857 7.95942 21.6667 8.66667 21.6667H19.3333C20.0406 21.6667 20.7189 21.3857 21.219 20.8856C21.719 20.3855 22 19.7072 22 19V12.3333C22 11.6261 21.719 10.9478 21.219 10.4477C20.7189 9.94762 20.0406 9.66667 19.3333 9.66667H18.412L17.632 8.10667C17.466 7.77418 17.2107 7.49451 16.8946 7.29904C16.5786 7.10356 16.2143 7.00001 15.8427 7H12.1573ZM11.5613 8.70133C11.6168 8.59074 11.7019 8.49774 11.8071 8.43275C11.9124 8.36776 12.0336 8.33334 12.1573 8.33333H15.8427C15.9664 8.33334 16.0876 8.36776 16.1929 8.43275C16.2981 8.49774 16.3832 8.59074 16.4387 8.70133L17.404 10.632C17.4594 10.7426 17.5445 10.8356 17.6498 10.9006C17.755 10.9656 17.8763 11 18 11H19.3333C19.687 11 20.0261 11.1405 20.2761 11.3905C20.5262 11.6406 20.6667 11.9797 20.6667 12.3333V19C20.6667 19.3536 20.5262 19.6928 20.2761 19.9428C20.0261 20.1929 19.687 20.3333 19.3333 20.3333H8.66667C8.31304 20.3333 7.97391 20.1929 7.72386 19.9428C7.47381 19.6928 7.33333 19.3536 7.33333 19V12.3333C7.33333 11.9797 7.47381 11.6406 7.72386 11.3905C7.97391 11.1405 8.31304 11 8.66667 11H10C10.1237 11 10.245 10.9656 10.3502 10.9006C10.4555 10.8356 10.5406 10.7426 10.596 10.632L11.5613 8.70133Z" fill="#333333"/>
<path fill-rule="evenodd" clip-rule="evenodd" d="M16.5567 2.20053L17.918 7.64551C17.9983 7.96698 18.3241 8.16244 18.6456 8.08207C18.967 8.0017 19.1625 7.67594 19.0821 7.35446L17.6053 1.44697C17.5146 1.08447 17.1553 0.857056 16.7889 0.930336L1.97873 3.89236C1.60433 3.96724 1.359 4.32833 1.4273 4.70399L3.4993 16.1H5.50004C5.83142 16.1 6.10004 15.8314 6.10004 15.5C6.10004 15.1686 5.83142 14.9 5.50004 14.9H4.50079L2.69583 4.97271L16.5567 2.20053Z" fill="#333333"/>
</svg>
