<svg width="24" height="24" viewBox="0 0 24 24" fill="none" xmlns="http://www.w3.org/2000/svg">
<path d="M19.25 8.5C19.9793 8.5 20.6788 8.21027 21.1945 7.69454C21.7103 7.17882 22 6.47935 22 5.75C22 5.02065 21.7103 4.32118 21.1945 3.80546C20.6788 3.28973 19.9793 3 19.25 3C18.5207 3 17.8212 3.28973 17.3055 3.80546C16.7897 4.32118 16.5 5.02065 16.5 5.75C16.5 6.47935 16.7897 7.17882 17.3055 7.69454C17.8212 8.21027 18.5207 8.5 19.25 8.5Z" fill="#616061"/>
<path d="M15.5762 6.50293C15.475 6.00812 15.4743 5.49801 15.5742 5.00293H2.75221L2.65021 5.00993C2.46196 5.03583 2.29056 5.13222 2.17065 5.27963C2.05073 5.42704 1.99123 5.61447 2.00419 5.80405C2.01714 5.99363 2.10157 6.17123 2.24042 6.30096C2.37927 6.43069 2.56219 6.50287 2.75221 6.50293H15.5762Z" fill="#616061"/>
<path d="M21.2532 18H2.75319L2.65119 18.007C2.46294 18.0329 2.29154 18.1293 2.17162 18.2767C2.0517 18.4241 1.99221 18.6115 2.00516 18.8011C2.01812 18.9907 2.10255 19.1683 2.2414 19.298C2.38025 19.4278 2.56317 19.4999 2.75319 19.5H21.2532L21.3552 19.493C21.5434 19.4671 21.7148 19.3707 21.8348 19.2233C21.9547 19.0759 22.0142 18.8885 22.0012 18.6989C21.9883 18.5093 21.9038 18.3317 21.765 18.202C21.6261 18.0722 21.4432 18.0001 21.2532 18Z" fill="#616061"/>
<path d="M2.75319 11.5029H21.2532C21.4432 11.503 21.6261 11.5752 21.765 11.7049C21.9038 11.8346 21.9883 12.0122 22.0012 12.2018C22.0142 12.3914 21.9547 12.5788 21.8348 12.7262C21.7148 12.8736 21.5434 12.97 21.3552 12.9959L21.2532 13.0029H2.75319C2.56317 13.0029 2.38025 12.9307 2.2414 12.801C2.10255 12.6712 2.01812 12.4936 2.00516 12.304C1.99221 12.1145 2.0517 11.927 2.17162 11.7796C2.29154 11.6322 2.46294 11.5358 2.65119 11.5099L2.75319 11.5029Z" fill="#616061"/>
</svg>
