<svg width="18" height="18" viewBox="0 0 18 18" fill="none" xmlns="http://www.w3.org/2000/svg">
<rect width="18" height="18" fill="white"/>
<path d="M7.5 9.74997C8.15172 10.6212 9.14972 11.1665 10.235 11.2442C11.3203 11.3219 12.3858 10.9245 13.155 10.155L15.405 7.90497C16.8261 6.43355 16.8058 4.09466 15.3593 2.64816C13.9128 1.20165 11.5739 1.18133 10.1025 2.60247L8.8125 3.88497" stroke="#00B87C" stroke-width="1.22693" stroke-linecap="round" stroke-linejoin="round"/>
<path d="M10.4997 8.24994C9.84794 7.37867 8.84994 6.83341 7.76467 6.75569C6.67941 6.67796 5.61389 7.07543 4.84466 7.84494L2.59466 10.0949C1.17352 11.5664 1.19384 13.9053 2.64034 15.3518C4.08684 16.7983 6.42574 16.8186 7.89716 15.3974L9.17966 14.1149" stroke="#00B87C" stroke-width="1.22693" stroke-linecap="round" stroke-linejoin="round"/>
</svg>
