<svg width="16" height="16" viewBox="0 0 16 16" fill="none" xmlns="http://www.w3.org/2000/svg">
<path fill-rule="evenodd" clip-rule="evenodd" d="M2 8.56042C2 7.88281 2.54931 7.3335 3.22693 7.3335H12.7731C13.4507 7.3335 14 7.88281 14 8.56042V13.4399C14 14.1175 13.4507 14.6668 12.7731 14.6668H3.22692C2.54931 14.6668 2 14.1175 2 13.4399V8.56042Z" fill="#242424" stroke="#242424" stroke-width="1.22693" stroke-linecap="round" stroke-linejoin="round"/>
<path fill-rule="evenodd" clip-rule="evenodd" d="M2 8.56042C2 7.88281 2.54931 7.3335 3.22693 7.3335H12.7731C13.4507 7.3335 14 7.88281 14 8.56042V13.4399C14 14.1175 13.4507 14.6668 12.7731 14.6668H3.22692C2.54931 14.6668 2 14.1175 2 13.4399V8.56042Z" fill="#242424" stroke="#242424" stroke-width="1.22693" stroke-linecap="round" stroke-linejoin="round"/>
<path d="M4.66663 7.3335V4.66683C4.66663 2.82588 6.15901 1.3335 7.99996 1.3335C9.84091 1.3335 11.3333 2.82588 11.3333 4.66683V7.3335" stroke="#242424" stroke-width="1.22693" stroke-linecap="round" stroke-linejoin="round"/>
<path d="M4.66663 7.3335V4.66683C4.66663 2.82588 6.15901 1.3335 7.99996 1.3335C9.84091 1.3335 11.3333 2.82588 11.3333 4.66683V7.3335" stroke="#242424" stroke-width="1.22693" stroke-linecap="round" stroke-linejoin="round"/>
</svg>
