<svg width="25" height="24" viewBox="0 0 25 24" fill="none" xmlns="http://www.w3.org/2000/svg">
<path d="M17.3718 20.9999V18.9999C17.3718 16.7908 15.581 14.9999 13.3718 14.9999H5.37183C3.16269 14.9999 1.37183 16.7908 1.37183 18.9999V20.9999" stroke="#333333" stroke-width="1.22693" stroke-linecap="round" stroke-linejoin="round"/>
<path fill-rule="evenodd" clip-rule="evenodd" d="M9.37183 10.9999C11.581 10.9999 13.3718 9.20908 13.3718 6.99994C13.3718 4.7908 11.581 2.99994 9.37183 2.99994C7.16269 2.99994 5.37183 4.7908 5.37183 6.99994C5.37183 9.20908 7.16269 10.9999 9.37183 10.9999Z" stroke="#333333" stroke-width="1.22693" stroke-linecap="round" stroke-linejoin="round"/>
<path d="M23.3721 20.9999V18.9999C23.3707 17.177 22.1371 15.5856 20.3721 15.1299" stroke="#333333" stroke-width="1.22693" stroke-linecap="round" stroke-linejoin="round"/>
<path d="M16.3721 3.12994C18.142 3.58311 19.3799 5.17794 19.3799 7.00494C19.3799 8.83195 18.142 10.4268 16.3721 10.8799" stroke="#333333" stroke-width="1.22693" stroke-linecap="round" stroke-linejoin="round"/>
</svg>
