<svg width="18" height="19" viewBox="0 0 18 19" fill="none" xmlns="http://www.w3.org/2000/svg">
<path d="M7.90585 2.04335L10.2775 4.41855C10.4857 4.62686 10.6412 4.88199 10.7309 5.16269C10.8207 5.44338 10.8421 5.74149 10.7934 6.03216C10.7448 6.32284 10.6275 6.59765 10.4512 6.83369C10.275 7.06973 10.0449 7.26015 9.78031 7.38908L7.75323 8.37762C7.46022 8.52061 7.2358 8.77417 7.12923 9.08266L6.66154 10.441C6.59339 10.6386 6.47616 10.8156 6.32089 10.9554C6.16562 11.0951 5.9774 11.193 5.77393 11.2399C5.57047 11.2867 5.35846 11.2809 5.15783 11.2231C4.9572 11.1653 4.77456 11.0573 4.62708 10.9094L3.46154 9.74209L1.87015 11.3346H1V10.4632L2.59138 8.87188L1.42462 7.70339C1.27714 7.55567 1.16958 7.37284 1.11201 7.17207C1.05445 6.9713 1.04878 6.75917 1.09554 6.5556C1.1423 6.35203 1.23995 6.1637 1.37932 6.00829C1.51869 5.85288 1.69521 5.7355 1.89231 5.66716L3.24862 5.19877C3.40169 5.14563 3.54279 5.06275 3.66381 4.95488C3.78483 4.847 3.88339 4.71626 3.95385 4.57015L4.94092 2.54008C5.06966 2.27505 5.25981 2.04468 5.4955 1.86818C5.73119 1.69168 6.00559 1.57417 6.29584 1.52544C6.58608 1.47672 6.88376 1.49819 7.16403 1.58806C7.44431 1.67794 7.69907 1.83362 7.90708 2.04212L7.90585 2.04335ZM2.23077 14.4185V12.4797L3.40492 11.3038L3.46154 11.3592V14.4185C3.46154 14.9089 3.65604 15.3792 4.00226 15.7259C4.34849 16.0726 4.81806 16.2674 5.30769 16.2674H9.61539V13.1859C9.61539 12.3687 9.93956 11.5849 10.5166 11.007C11.0936 10.4291 11.8763 10.1045 12.6923 10.1045H15.7692V5.79042C15.7692 5.30006 15.5747 4.82979 15.2285 4.48306C14.8823 4.13633 14.4127 3.94153 13.9231 3.94153H11.4148C11.3646 3.88232 11.312 3.82517 11.2572 3.7702L10.1975 2.70895H13.9231C14.7391 2.70895 15.5218 3.0336 16.0988 3.61149C16.6758 4.18937 17 4.97316 17 5.79042V10.3165C16.9998 11.1334 16.6758 11.9168 16.0991 12.4945L12.0018 16.5977C11.425 17.1753 10.6428 17.4998 9.82708 17.5H5.30769C4.49164 17.5 3.70901 17.1753 3.13198 16.5975C2.55494 16.0196 2.23077 15.2358 2.23077 14.4185ZM10.8462 15.9593C10.9483 15.8915 11.0431 15.8138 11.1317 15.7251L15.2289 11.623C15.3163 11.5355 15.3938 11.4394 15.4628 11.3371H12.6923C12.2027 11.3371 11.7331 11.5319 11.3869 11.8786C11.0407 12.2253 10.8462 12.6956 10.8462 13.1859V15.9593Z" fill="#424141"/>
</svg>
