<svg width="25" height="24" viewBox="0 0 25 24" fill="none" xmlns="http://www.w3.org/2000/svg">
<path fill-rule="evenodd" clip-rule="evenodd" d="M21.372 16.9199V19.9199C21.3743 20.4831 21.1391 21.0211 20.7241 21.4018C20.3091 21.7825 19.7529 21.9706 19.192 21.9199C16.1148 21.5856 13.159 20.5341 10.562 18.8499C8.14584 17.3146 6.09735 15.2661 4.56201 12.8499C2.87199 10.2411 1.82025 7.27091 1.49201 4.17992C1.44148 3.62079 1.62828 3.06617 2.00678 2.65154C2.38527 2.2369 2.9206 2.00044 3.48201 1.99992H6.48201C7.48588 1.99004 8.34151 2.72588 8.48201 3.71992C8.60863 4.67998 8.84346 5.62264 9.18201 6.52992C9.45675 7.26079 9.28103 8.08472 8.73201 8.63992L7.46201 9.90992C8.88557 12.4135 10.9585 14.4864 13.462 15.9099L14.732 14.6399C15.2872 14.0909 16.1111 13.9152 16.842 14.1899C17.7493 14.5285 18.6919 14.7633 19.652 14.8899C20.6576 15.0318 21.3972 15.9047 21.372 16.9199Z" stroke="#333333" stroke-width="1.22693" stroke-linecap="round" stroke-linejoin="round"/>
</svg>
