<svg width="22" height="22" viewBox="0 0 22 22" fill="none" xmlns="http://www.w3.org/2000/svg">
<path d="M13.4103 0.0831311C13.5089 0.0829551 13.6065 0.102206 13.6976 0.139784C13.7887 0.177361 13.8716 0.232528 13.9413 0.302131L21.3663 7.72713C21.5069 7.86778 21.5859 8.05851 21.5859 8.25738C21.5859 8.45625 21.5069 8.64699 21.3663 8.78763C20.6463 9.50763 19.7583 9.66963 19.1118 9.66963C18.8463 9.66963 18.6093 9.64263 18.4218 9.61113L13.7208 14.3121C13.8446 14.8107 13.9249 15.3191 13.9608 15.8316C14.0298 16.8846 13.9128 18.3621 12.8808 19.3941C12.7402 19.5347 12.5495 19.6137 12.3506 19.6137C12.1517 19.6137 11.961 19.5347 11.8203 19.3941L7.57684 15.1521L2.80384 19.9251C2.51134 20.2176 0.975342 21.2781 0.682842 20.9856C0.390342 20.6931 1.45084 19.1556 1.74334 18.8646L6.51634 14.0916L2.27434 9.84813C2.13374 9.70749 2.05475 9.51675 2.05475 9.31788C2.05475 9.11901 2.13374 8.92828 2.27434 8.78763C3.30634 7.75563 4.78384 7.63713 5.83684 7.70763C6.34933 7.74354 6.85773 7.82384 7.35634 7.94763L12.0573 3.24813C12.0181 3.01971 11.998 2.7884 11.9973 2.55663C11.9973 1.91163 12.1593 1.02363 12.8808 0.302131C13.0214 0.161928 13.2118 0.0831733 13.4103 0.0831311ZM13.5933 3.25113V3.24813V3.25113ZM13.5933 3.24813V3.25113C13.6367 3.38309 13.6425 3.52448 13.6102 3.65955C13.5779 3.79462 13.5087 3.91806 13.4103 4.01613L8.10784 9.31713C8.00932 9.41523 7.88546 9.48402 7.75011 9.5158C7.61476 9.54759 7.47323 9.54112 7.34134 9.49713H7.33834L7.31734 9.49113C7.17464 9.44838 7.03056 9.41036 6.88534 9.37713C6.508 9.28911 6.12431 9.23093 5.73784 9.20313C5.10484 9.16113 4.48384 9.21513 3.97534 9.42813L12.2403 17.6916C12.4518 17.1816 12.5058 16.5621 12.4638 15.9291C12.4256 15.3932 12.3291 14.8631 12.1758 14.3481L12.1698 14.3286V14.3271C12.1255 14.195 12.1189 14.0532 12.1507 13.9176C12.1825 13.7819 12.2515 13.6578 12.3498 13.5591L17.6538 8.25663C17.756 8.15387 17.8857 8.08289 18.0273 8.05228C18.1689 8.02167 18.3164 8.03273 18.4518 8.08413L18.5958 8.11713C18.7263 8.14263 18.9078 8.16813 19.1118 8.16813C19.2828 8.16813 19.4568 8.15163 19.6263 8.10813L13.5588 2.04213C13.5153 2.21163 13.4988 2.38713 13.4988 2.55663C13.4996 2.78971 13.5308 3.02168 13.5918 3.24663L13.5933 3.24813Z" fill="black"/>
</svg>
