<svg width="24" height="24" viewBox="0 0 24 24" fill="none" xmlns="http://www.w3.org/2000/svg">
<path d="M19.8733 10.6667H19.3333V5.88666C19.3333 5.53303 19.1928 5.1939 18.9428 4.94385C18.6927 4.6938 18.3536 4.55332 18 4.55332H14C13.9578 3.75079 13.6349 2.9886 13.0878 2.4C12.5406 1.81141 11.804 1.43384 11.0066 1.33332C10.5506 1.28637 10.0898 1.334 9.65295 1.47323C9.21615 1.61246 8.81276 1.84031 8.468 2.14251C8.12324 2.44472 7.84454 2.8148 7.6493 3.22961C7.45406 3.64442 7.34649 4.09505 7.33331 4.55332H2.66665C2.31302 4.55332 1.97389 4.6938 1.72384 4.94385C1.47379 5.1939 1.33331 5.53303 1.33331 5.88666V11.3333H3.20665C3.71962 11.3184 4.22009 11.4931 4.61242 11.8239C5.00474 12.1547 5.26139 12.6185 5.33331 13.1267C5.35926 13.4054 5.32639 13.6866 5.23681 13.9519C5.14724 14.2171 5.00296 14.4607 4.81331 14.6667C4.62692 14.8751 4.39891 15.0421 4.14399 15.1569C3.88907 15.2717 3.6129 15.3318 3.33331 15.3333H1.33331V21.22C1.33331 21.5736 1.47379 21.9127 1.72384 22.1628C1.97389 22.4128 2.31302 22.5533 2.66665 22.5533H18C18.3536 22.5533 18.6927 22.4128 18.9428 22.1628C19.1928 21.9127 19.3333 21.5736 19.3333 21.22V17.3333H20C20.4679 17.3358 20.931 17.2397 21.3593 17.0513C21.7876 16.863 22.1714 16.5865 22.4859 16.24C22.8003 15.8936 23.0382 15.4848 23.1842 15.0402C23.3303 14.5957 23.381 14.1254 23.3333 13.66C23.2253 12.823 22.8128 12.0552 22.1745 11.503C21.5363 10.9509 20.7171 10.6532 19.8733 10.6667ZM21.48 15.3333C21.2936 15.5417 21.0656 15.7087 20.8107 15.8236C20.5557 15.9384 20.2796 15.9985 20 16H18V21.22H2.66665V16.6667H3.33331C3.80119 16.6691 4.26434 16.573 4.69264 16.3846C5.12093 16.1963 5.50478 15.9199 5.8192 15.5734C6.13362 15.2269 6.37157 14.8181 6.51758 14.3736C6.66359 13.929 6.71438 13.4588 6.66665 12.9933C6.5586 12.1564 6.14609 11.3885 5.50787 10.8364C4.86966 10.2842 4.05044 9.98649 3.20665 9.99999H2.66665V5.88666H8.66665V4.66666C8.66815 4.38707 8.72825 4.1109 8.84308 3.85598C8.95791 3.60106 9.12491 3.37305 9.33331 3.18666C9.5393 2.99701 9.78282 2.85273 10.0481 2.76316C10.3134 2.67358 10.5945 2.6407 10.8733 2.66666C11.3814 2.73858 11.8452 2.99523 12.1761 3.38755C12.5069 3.77987 12.6815 4.28035 12.6666 4.79332V5.88666H18V12H19.8733C20.3863 11.9851 20.8868 12.1597 21.2791 12.4906C21.6714 12.8214 21.9281 13.2852 22 13.7933C22.0259 14.0721 21.9931 14.3532 21.9035 14.6185C21.8139 14.8838 21.6696 15.1273 21.48 15.3333Z" fill="#7B8794"/>
</svg>
