<svg width="18" height="18" viewBox="0 0 18 18" fill="none" xmlns="http://www.w3.org/2000/svg">
<path fill-rule="evenodd" clip-rule="evenodd" d="M8.99994 11.25C10.2426 11.25 11.2499 10.2426 11.2499 9C11.2499 7.75736 10.2426 6.75 8.99994 6.75C7.7573 6.75 6.74994 7.75736 6.74994 9C6.74994 10.2426 7.7573 11.25 8.99994 11.25Z" stroke="#242424" stroke-width="1.22693" stroke-linecap="round" stroke-linejoin="round"/>
<path fill-rule="evenodd" clip-rule="evenodd" d="M14.5499 11.25C14.3457 11.7128 14.4437 12.2534 14.7974 12.615L14.8424 12.66C15.1241 12.9414 15.2824 13.3231 15.2824 13.7213C15.2824 14.1194 15.1241 14.5011 14.8424 14.7825C14.5611 15.0642 14.1793 15.2224 13.7812 15.2224C13.3831 15.2224 13.0013 15.0642 12.7199 14.7825L12.6749 14.7375C12.3133 14.3838 11.7728 14.2857 11.3099 14.49C10.8566 14.6843 10.5619 15.1293 10.5599 15.6225V15.75C10.5599 16.5784 9.88837 17.25 9.05994 17.25C8.23151 17.25 7.55994 16.5784 7.55994 15.75V15.6825C7.54806 15.1745 7.22684 14.7254 6.74994 14.55C6.28712 14.3457 5.74658 14.4438 5.38494 14.7975L5.33994 14.8425C5.05859 15.1242 4.6768 15.2824 4.27869 15.2824C3.88058 15.2824 3.49879 15.1242 3.21744 14.8425C2.93577 14.5611 2.77751 14.1794 2.77751 13.7812C2.77751 13.3831 2.93577 13.0014 3.21744 12.72L3.26244 12.675C3.61619 12.3134 3.7142 11.7728 3.50994 11.31C3.31564 10.8566 2.87067 10.562 2.37744 10.56H2.24994C1.42151 10.56 0.749939 9.88843 0.749939 9.06C0.749939 8.23157 1.42151 7.56 2.24994 7.56H2.31744C2.82544 7.54812 3.27454 7.2269 3.44994 6.75C3.6542 6.28718 3.55619 5.74664 3.20244 5.385L3.15744 5.34C2.87577 5.05865 2.71751 4.67686 2.71751 4.27875C2.71751 3.88064 2.87577 3.49885 3.15744 3.2175C3.43879 2.93583 3.82058 2.77757 4.21869 2.77757C4.6168 2.77757 4.99859 2.93583 5.27994 3.2175L5.32494 3.2625C5.68658 3.61625 6.22712 3.71426 6.68994 3.51H6.74994C7.20329 3.3157 7.49797 2.87073 7.49994 2.3775V2.25C7.49994 1.42157 8.17151 0.75 8.99994 0.75C9.82837 0.75 10.4999 1.42157 10.4999 2.25V2.3175C10.5019 2.81073 10.7966 3.2557 11.2499 3.45C11.7128 3.65426 12.2533 3.55625 12.6149 3.2025L12.6599 3.1575C12.9413 2.87583 13.3231 2.71757 13.7212 2.71757C14.1193 2.71757 14.5011 2.87583 14.7824 3.1575C15.0641 3.43885 15.2224 3.82064 15.2224 4.21875C15.2224 4.61686 15.0641 4.99865 14.7824 5.28L14.7374 5.325C14.3837 5.68664 14.2857 6.22718 14.4899 6.69V6.75C14.6842 7.20335 15.1292 7.49803 15.6224 7.5H15.7499C16.5784 7.5 17.2499 8.17157 17.2499 9C17.2499 9.82843 16.5784 10.5 15.7499 10.5H15.6824C15.1892 10.502 14.7442 10.7966 14.5499 11.25Z" stroke="#242424" stroke-width="1.22693" stroke-linecap="round" stroke-linejoin="round"/>
</svg>
