<?xml version="1.0" encoding="iso-8859-1"?>
<!-- Generator: Adobe Illustrator 19.0.0, SVG Export Plug-In . SVG Version: 6.00 Build 0)  -->
<svg version="1.1" id="Layer_1" xmlns="http://www.w3.org/2000/svg" xmlns:xlink="http://www.w3.org/1999/xlink" x="0px" y="0px"
	 viewBox="0 0 512 512" style="enable-background:new 0 0 512 512;" xml:space="preserve">
<g>
	<g>
		<path d="M481.585,194.756l-178.267-55.699c-0.662-4.609-1.488-9.33-2.518-14.178c-1.917-9.027-10.783-14.797-19.817-12.876
			c-3.254,0.691-6.074,2.295-8.273,4.474V93.506c0-9.229-7.482-16.711-16.711-16.711c-11.957,0-21.685-9.728-21.685-21.685
			S244.042,33.422,256,33.422c11.958,0,21.686,9.728,21.686,21.686c0,9.229,7.482,16.711,16.711,16.711
			c9.229,0,16.711-7.482,16.711-16.711C311.108,24.721,286.386,0,256,0s-55.107,24.721-55.107,55.108
			c0,24.563,16.155,45.424,38.396,52.518v21.867L30.416,194.755c-17.199,5.374-27.709,22.203-24.992,40.016
			s17.768,30.742,35.788,30.742h118.921c-1.955,4.063-3.007,8.559-3.007,13.203V481.55c0,16.79,13.66,30.45,30.45,30.45h136.847
			c16.79,0,30.45-13.66,30.45-30.45V278.716c0-4.643-1.052-9.14-3.006-13.203h118.921c18.019,0,33.07-12.929,35.787-30.742
			C509.293,216.96,498.784,200.131,481.585,194.756z M41.213,232.091c-1.384,0-2.54-0.993-2.75-2.361
			c-0.209-1.369,0.599-2.661,1.921-3.074L256,159.288l15.912,4.972c0.201,11.418-0.887,21.605-2.694,30.53
			c-4.101-1.975-8.618-3.044-13.218-3.044c-7.061,0-13.948,2.477-19.391,6.973l-40.401,33.372H41.213z M321.451,478.578H190.549
			V280.116L256,226.051l1.633,1.349c-2.088,3.875-3.519,6.142-5.202,8.516c-4.911,6.931-3.91,16.388,2.322,22.159
			c7.397,6.849,19.174,5.53,24.868-2.804c1.468-2.15,2.881-4.311,4.093-6.326c7.862,6.495,29.606,24.455,37.737,31.172V478.578z
			 M473.536,229.729c-0.209,1.368-1.365,2.361-2.748,2.361H315.792l-17.957-14.833c3.759-11.995,6.631-26.234,7.341-42.606
			l166.441,52.003C472.938,227.069,473.745,228.361,473.536,229.729z"/>
	</g>
</g>
<g>
	<g>
		<path d="M288.682,388.351c-12.004,0-21.185,5.085-21.185,19.066v20.054c0,13.982,9.18,19.066,21.185,19.066
			c11.864,0,21.185-5.085,21.185-19.066v-20.054C309.866,393.436,300.546,388.351,288.682,388.351z M295.744,427.472
			c0,4.66-2.683,6.779-7.062,6.779c-4.378,0-6.921-2.119-6.921-6.779v-20.054c0-4.661,2.542-6.779,6.921-6.779
			c4.379,0,7.062,2.118,7.062,6.779V427.472z"/>
	</g>
</g>
<g>
	<g>
		<path d="M223.857,342.876c-12.004,0-21.184,5.085-21.184,19.066v20.054c0,13.982,9.179,19.066,21.184,19.066
			c11.865,0,21.185-5.085,21.185-19.066v-20.054C245.042,347.961,235.722,342.876,223.857,342.876z M230.919,381.996
			c0,4.661-2.683,6.779-7.062,6.779c-4.378,0-6.919-2.118-6.919-6.779v-20.054c0-4.661,2.541-6.779,6.919-6.779
			c4.379,0,7.062,2.118,7.062,6.779V381.996z"/>
	</g>
</g>
<g>
	<g>
		<path d="M280.492,337.085c-2.541,0-4.802,1.13-5.931,3.53l-49.571,101.827c-0.424,0.848-0.706,1.836-0.706,2.684
			c0,3.531,3.107,7.485,7.909,7.485c2.684,0,5.366-1.413,6.356-3.53l49.713-101.827c0.422-0.848,0.564-1.837,0.564-2.684
			C288.824,340.051,284.445,337.085,280.492,337.085z"/>
	</g>
</g>
<g>
</g>
<g>
</g>
<g>
</g>
<g>
</g>
<g>
</g>
<g>
</g>
<g>
</g>
<g>
</g>
<g>
</g>
<g>
</g>
<g>
</g>
<g>
</g>
<g>
</g>
<g>
</g>
<g>
</g>
</svg>
