<svg width="20" height="14" viewBox="0 0 20 14" fill="none" xmlns="http://www.w3.org/2000/svg">
<path d="M12.253 2.26944C12.2199 2.25485 12.1836 2.24883 12.1475 2.25192C12.1115 2.25501 12.0767 2.26712 12.0466 2.28714C12.0164 2.30715 11.9917 2.33442 11.9749 2.36645C11.958 2.39848 11.9494 2.43424 11.95 2.47044V3.97494C11.95 4.17385 11.871 4.36462 11.7303 4.50527C11.5897 4.64592 11.3989 4.72494 11.2 4.72494H1.75V9.07494H11.2C11.3989 9.07494 11.5897 9.15396 11.7303 9.29461C11.871 9.43526 11.95 9.62603 11.95 9.82494V11.3294C11.95 11.4914 12.115 11.5934 12.253 11.5304L18.229 7.13094C18.2493 7.11591 18.2703 7.10189 18.292 7.08894C18.3246 7.06934 18.3516 7.04163 18.3703 7.00851C18.3891 6.97539 18.3989 6.93799 18.3989 6.89994C18.3989 6.86189 18.3891 6.82448 18.3703 6.79136C18.3516 6.75824 18.3246 6.73054 18.292 6.71094C18.2703 6.69799 18.2493 6.68397 18.229 6.66894L12.253 2.26944ZM10.45 2.47044C10.4499 2.16154 10.5331 1.85833 10.6909 1.59281C10.8488 1.32729 11.0754 1.10929 11.3468 0.961826C11.6182 0.814362 11.9244 0.742898 12.2331 0.754974C12.5417 0.76705 12.8414 0.862219 13.1005 1.03044L19.0915 5.44044C19.3392 5.59504 19.5434 5.81013 19.6851 6.06547C19.8267 6.3208 19.901 6.60797 19.901 6.89994C19.901 7.19191 19.8267 7.47908 19.6851 7.73441C19.5434 7.98974 19.3392 8.20483 19.0915 8.35944L13.1005 12.7694C12.8414 12.9377 12.5417 13.0328 12.2331 13.0449C11.9244 13.057 11.6182 12.9855 11.3468 12.838C11.0754 12.6906 10.8488 12.4726 10.6909 12.2071C10.5331 11.9415 10.4499 11.6383 10.45 11.3294V10.5749H1C0.801088 10.5749 0.610322 10.4959 0.46967 10.3553C0.329018 10.2146 0.25 10.0239 0.25 9.82494V3.97494C0.25 3.77603 0.329018 3.58526 0.46967 3.44461C0.610322 3.30396 0.801088 3.22494 1 3.22494H10.45V2.47044Z" fill="#616061"/>
</svg>
