<svg width="24" height="24" viewBox="0 0 24 24" fill="none" xmlns="http://www.w3.org/2000/svg">
<path fill-rule="evenodd" clip-rule="evenodd" d="M5.86968 15.6737C5.98091 15.7854 6.06614 15.9202 6.11929 16.0686C6.17245 16.2169 6.19223 16.3752 6.17722 16.5321C6.10191 17.2582 5.95913 17.9756 5.75073 18.6752C7.24558 18.3291 8.15857 17.9283 8.57327 17.7183C8.80848 17.5992 9.07936 17.5709 9.33408 17.639C10.0643 17.8337 10.8169 17.9317 11.5726 17.9305C15.8546 17.9305 19.0736 14.9226 19.0736 11.501C19.0736 8.08056 15.8546 5.07158 11.5726 5.07158C7.29059 5.07158 4.07158 8.08056 4.07158 11.501C4.07158 13.0741 4.73274 14.5336 5.86968 15.6737ZM5.34139 19.8582C5.0875 19.9086 4.83279 19.9547 4.57736 19.9965C4.36304 20.0308 4.20016 19.8079 4.28482 19.6086C4.37997 19.3842 4.46718 19.1565 4.54628 18.926L4.5495 18.9153C4.81525 18.1437 5.03171 17.2565 5.111 16.4303C3.79618 15.1122 3 13.387 3 11.501C3 7.35832 6.83838 4 11.5726 4C16.3068 4 20.1452 7.35832 20.1452 11.501C20.1452 15.6437 16.3068 19.0021 11.5726 19.0021C10.7235 19.0032 9.878 18.893 9.05762 18.6742C8.5004 18.956 7.3013 19.4693 5.34139 19.8582Z" fill="#424141"/>
<path fill-rule="evenodd" clip-rule="evenodd" d="M7.28625 8.82241C7.28625 8.68031 7.3427 8.54403 7.44318 8.44355C7.54366 8.34307 7.67994 8.28662 7.82204 8.28662H15.3231C15.4652 8.28662 15.6014 8.34307 15.7019 8.44355C15.8024 8.54403 15.8589 8.68031 15.8589 8.82241C15.8589 8.96451 15.8024 9.10079 15.7019 9.20127C15.6014 9.30175 15.4652 9.3582 15.3231 9.3582H7.82204C7.67994 9.3582 7.54366 9.30175 7.44318 9.20127C7.3427 9.10079 7.28625 8.96451 7.28625 8.82241ZM7.28625 11.5013C7.28625 11.3592 7.3427 11.223 7.44318 11.1225C7.54366 11.022 7.67994 10.9656 7.82204 10.9656H15.3231C15.4652 10.9656 15.6014 11.022 15.7019 11.1225C15.8024 11.223 15.8589 11.3592 15.8589 11.5013C15.8589 11.6434 15.8024 11.7797 15.7019 11.8802C15.6014 11.9807 15.4652 12.0371 15.3231 12.0371H7.82204C7.67994 12.0371 7.54366 11.9807 7.44318 11.8802C7.3427 11.7797 7.28625 11.6434 7.28625 11.5013ZM7.28625 14.1803C7.28625 14.0382 7.3427 13.9019 7.44318 13.8014C7.54366 13.7009 7.67994 13.6445 7.82204 13.6445H12.1083C12.2504 13.6445 12.3867 13.7009 12.4872 13.8014C12.5877 13.9019 12.6441 14.0382 12.6441 14.1803C12.6441 14.3224 12.5877 14.4587 12.4872 14.5591C12.3867 14.6596 12.2504 14.7161 12.1083 14.7161H7.82204C7.67994 14.7161 7.54366 14.6596 7.44318 14.5591C7.3427 14.4587 7.28625 14.3224 7.28625 14.1803Z" fill="#424141"/>
</svg>
